P2
# Created by IrfanView
4 3
255
67 42 44 98
123 205 66 244
5 99 1 13