P2
# Created by IrfanView
4 2
255
123 205 66 244 
5 99 1 13 
